<svg xmlns="http://www.w3.org/2000/svg" viewBox="0 0 512 512">
  <rect width="512" height="512" rx="112" fill="#1f2d29"/>
  <path d="M144 252C144 183.2 192.8 136 260.8 136c64.8 0 107.2 40 113.6 99.2h-64c-5.6-24-23.2-40-49.6-40-32 0-52.8 23.2-52.8 56.8s21.6 57.6 53.6 57.6c24.8 0 42.4-12.8 49.6-34.4H376c-8.8 55.2-51.2 93.6-114.4 93.6C192.8 368.8 144 320.8 144 252Z" fill="#ffffff"/>
  <path d="M120 388l65.6-24.8c20 12 44.8 19.2 74.4 19.2 82.4 0 140-52.8 140-130.4S342.4 121.6 260 121.6 120 174.4 120 252c0 28 8 53.6 22.4 74.4L120 388Z" fill="none" stroke="#7ee0b2" stroke-width="28" stroke-linejoin="round"/>
</svg>
