<svg xmlns="http://www.w3.org/2000/svg" viewBox="0 0 192 192">
  <rect width="192" height="192" rx="42" fill="#1f2d29"/>
  <path d="M54 94.5C54 68.7 72.3 51 97.8 51c24.3 0 40.2 15 42.6 37.2h-24c-2.1-9-8.7-15-18.6-15-12 0-19.8 8.7-19.8 21.3s8.1 21.6 20.1 21.6c9.3 0 15.9-4.8 18.6-12.9H141c-3.3 20.7-19.2 35.1-42.9 35.1C72.3 138.3 54 120.3 54 94.5Z" fill="#ffffff"/>
  <path d="M45 145.5l24.6-9.3c7.5 4.5 16.8 7.2 27.9 7.2 30.9 0 52.5-19.8 52.5-48.9S128.4 45.6 97.5 45.6 45 65.4 45 94.5c0 10.5 3 20.1 8.4 27.9L45 145.5Z" fill="none" stroke="#7ee0b2" stroke-width="10.5" stroke-linejoin="round"/>
</svg>
